<svg width="24" height="22" viewBox="0 0 24 22" fill="none" xmlns="http://www.w3.org/2000/svg">
<path d="M23 8.5L15.6667 1L23 8.5ZM23 8.5H1H23ZM23 8.5L21.3416 16.9806C20.8846 19.3178 18.8781 21 16.5476 21H7.45238C5.12193 21 3.11546 19.3178 2.65842 16.9806L1 8.5M1 8.5L8.33333 1L1 8.5Z" fill="#4369EF"/>
<path d="M23 8.5L15.6667 1M23 8.5H1M23 8.5L21.3416 16.9806C20.8846 19.3178 18.8781 21 16.5476 21H7.45238C5.12193 21 3.11546 19.3178 2.65842 16.9806L1 8.5M1 8.5L8.33333 1" stroke="#4369EF" stroke-width="1.5" stroke-linecap="round" stroke-linejoin="round"/>
<path d="M7.5 14.5H16.5" stroke="#F6F6F6" stroke-width="1.5" stroke-linecap="round"/>
</svg>
