<svg width="18" height="20" viewBox="0 0 18 20" fill="none" xmlns="http://www.w3.org/2000/svg">
<path d="M17.5311 12.5601L12.5077 17.6021C11.147 18.9671 9.25478 19.75 7.31459 19.75C5.40637 19.75 3.63005 19.021 2.31028 17.697C-0.473124 14.903 -0.431192 10.313 2.40516 7.46704L8.12786 1.72302C9.07498 0.773022 10.3338 0.25 11.6725 0.25C13.0113 0.25 14.2701 0.773022 15.2173 1.72302C17.1704 3.68302 17.1704 6.87201 15.2173 8.83301L9.46761 14.604C8.37863 15.696 6.48136 15.696 5.39237 14.604C4.27042 13.478 4.27042 11.646 5.39237 10.519L10.4427 5.44995C10.7344 5.15795 11.21 5.15597 11.5027 5.44897C11.7954 5.74097 11.7964 6.21701 11.5037 6.51001L6.45339 11.579C5.9129 12.121 5.9129 13.003 6.45339 13.545C6.97491 14.069 7.88404 14.069 8.40555 13.545L14.1552 7.77405C15.5269 6.39805 15.5269 4.15896 14.1552 2.78296C12.8294 1.45096 10.5146 1.45096 9.18888 2.78296L3.46619 8.52698C1.25025 10.751 1.20726 14.4659 3.37124 16.6379C4.40728 17.6779 5.80702 18.25 7.31361 18.25C8.85818 18.25 10.3648 17.627 11.4458 16.542L16.4691 11.5C16.7608 11.208 17.2353 11.206 17.5291 11.499C17.8228 11.791 17.8238 12.2661 17.5311 12.5601Z" fill="#4369EF"/>
</svg>