<svg width="24" height="24" viewBox="0 0 24 24" fill="none" xmlns="http://www.w3.org/2000/svg">
<g clip-path="url(#clip0_60_5100)">
<path d="M17.6607 20.3792C17.7678 20.3261 17.8896 20.3087 18.0062 20.3346L20.2329 20.8295C20.5902 20.9089 20.9089 20.5902 20.8295 20.2329L20.3346 18.0062C20.3087 17.8896 20.3261 17.7678 20.3792 17.6607C20.7885 16.8344 21.0014 15.9238 21 15C21 11.6862 18.3138 9 15 9C11.6862 9 9 11.6862 9 15C9 18.3138 11.6862 21 15 21C15.9238 21.0014 16.8344 20.7885 17.6607 20.3792Z" fill="white"/>
<path d="M6.86823 16.262C6.76136 16.2084 6.63955 16.1911 6.52286 16.217L3.76707 16.8295C3.40981 16.9089 3.09109 16.5902 3.1705 16.2329L3.78301 13.4771C3.80895 13.3605 3.79157 13.2386 3.73804 13.1318C3.2515 12.1605 2.99837 11.088 3.00001 10C3.00001 6.1339 6.13391 3 10 3C13.8661 3 17 6.1339 17 10C17 13.8661 13.8661 17 10 17C8.91196 17.0016 7.83953 16.7485 6.86823 16.262Z" fill="white"/>
</g>
<defs>
<clipPath id="clip0_60_5100">
<rect width="24" height="24" fill="white"/>
</clipPath>
</defs>
</svg>
