<?xml version="1.0" encoding="UTF-8" standalone="no"?>
<svg
   width="18.000002"
   height="18.000006"
   viewBox="0 0 18.000002 18.000006"
   fill="none"
   version="1.1"
   id="svg2"
   sodipodi:docname="contacts.svg"
   inkscape:version="1.3 (1:1.3+202307231459+0e150ed6c4)"
   xmlns:inkscape="http://www.inkscape.org/namespaces/inkscape"
   xmlns:sodipodi="http://sodipodi.sourceforge.net/DTD/sodipodi-0.dtd"
   xmlns="http://www.w3.org/2000/svg"
   xmlns:svg="http://www.w3.org/2000/svg">
  <sodipodi:namedview
     id="namedview2"
     pagecolor="#ffffff"
     bordercolor="#000000"
     borderopacity="0.25"
     inkscape:showpageshadow="2"
     inkscape:pageopacity="0.0"
     inkscape:pagecheckerboard="0"
     inkscape:deskcolor="#d1d1d1"
     inkscape:zoom="33.708333"
     inkscape:cx="8.9888752"
     inkscape:cy="9.0037083"
     inkscape:window-width="1920"
     inkscape:window-height="1012"
     inkscape:window-x="0"
     inkscape:window-y="0"
     inkscape:window-maximized="1"
     inkscape:current-layer="svg2" />
  <g
     clip-path="url(#clip0_60_2760)"
     id="g2"
     transform="translate(-3.000003,-3)">
    <path
       d="M 20.25,15.0011 V 15 c 0,-2.8996 -2.3504,-5.25 -5.25,-5.25 -2.8996,0 -5.25,2.3504 -5.25,5.25 0,2.8996 2.3504,5.25 5.25,5.25 h 0.0011 c 0.8078,0.0012 1.6041,-0.1849 2.3267,-0.5429 l 0.3329,0.6721 -0.3329,-0.6721 c 0.2495,-0.1236 0.5456,-0.1703 0.8412,-0.1046 l 1.8431,0.4096 -0.4096,-1.8431 c -0.0657,-0.2956 -0.019,-0.5917 0.1046,-0.8412 0.358,-0.7226 0.5441,-1.5189 0.5429,-2.3267 z"
       stroke="#939393"
       stroke-width="1.5"
       id="path1" />
    <path
       d="M 3.75001,10.0011 V 10 c 0,-3.45189 2.79811,-6.25 6.24999,-6.25 3.4519,0 6.25,2.79811 6.25,6.25 0,3.4519 -2.7981,6.25 -6.25,6.25 H 9.99887 C 9.02792,16.2515 8.0709,16.0256 7.20414,15.5914 L 6.86823,16.262 7.20414,15.5914 C 6.95253,15.4654 6.65521,15.4193 6.36013,15.4849 L 3.98788,16.0121 4.51515,13.6399 C 4.58073,13.3448 4.53465,13.0475 4.40861,12.7959 3.97443,11.9291 3.74855,10.9721 3.75001,10.0011 Z"
       fill="#f6f6f6"
       stroke="#939393"
       stroke-width="1.5"
       id="path2" />
  </g>
  <defs
     id="defs2">
    <clipPath
       id="clip0_60_2760">
      <rect
         width="24"
         height="24"
         fill="#ffffff"
         id="rect2"
         x="0"
         y="0" />
    </clipPath>
  </defs>
</svg>
