<svg width="30" height="30" viewBox="0 0 30 30" fill="none" xmlns="http://www.w3.org/2000/svg">
<rect width="30" height="30" rx="6" fill="#4369EF"/>
<path d="M15.75 6.5625C15.75 6.14829 15.4142 5.8125 15 5.8125C14.5858 5.8125 14.25 6.14829 14.25 6.5625H15.75ZM14.4697 17.4053C14.7626 17.6982 15.2374 17.6982 15.5303 17.4053L20.3033 12.6324C20.5962 12.3395 20.5962 11.8646 20.3033 11.5717C20.0104 11.2788 19.5355 11.2788 19.2426 11.5717L15 15.8143L10.7574 11.5717C10.4645 11.2788 9.98959 11.2788 9.6967 11.5717C9.40381 11.8646 9.40381 12.3395 9.6967 12.6324L14.4697 17.4053ZM14.25 6.5625V16.875H15.75V6.5625H14.25Z" fill="white"/>
<path d="M23.4375 18.75V18.75C23.4375 20.8211 21.7586 22.5 19.6875 22.5H10.3125C8.24143 22.5 6.5625 20.8211 6.5625 18.75V18.75" stroke="white" stroke-width="1.5" stroke-linecap="round"/>
</svg>
