<?xml version="1.0" encoding="UTF-8" standalone="no"?>
<svg
   width="18"
   height="18"
   viewBox="0 0 18 18"
   fill="none"
   version="1.1"
   id="svg2"
   sodipodi:docname="main.svg"
   inkscape:version="1.3 (1:1.3+202307231459+0e150ed6c4)"
   xmlns:inkscape="http://www.inkscape.org/namespaces/inkscape"
   xmlns:sodipodi="http://sodipodi.sourceforge.net/DTD/sodipodi-0.dtd"
   xmlns="http://www.w3.org/2000/svg"
   xmlns:svg="http://www.w3.org/2000/svg">
  <sodipodi:namedview
     id="namedview2"
     pagecolor="#ffffff"
     bordercolor="#000000"
     borderopacity="0.25"
     inkscape:showpageshadow="2"
     inkscape:pageopacity="0.0"
     inkscape:pagecheckerboard="0"
     inkscape:deskcolor="#d1d1d1"
     inkscape:zoom="33.708333"
     inkscape:cx="8.9888752"
     inkscape:cy="9.0037083"
     inkscape:window-width="1920"
     inkscape:window-height="1012"
     inkscape:window-x="0"
     inkscape:window-y="0"
     inkscape:window-maximized="1"
     inkscape:current-layer="svg2" />
  <g
     clip-path="url(#clip0_60_3003)"
     id="g2"
     transform="translate(-3,-3)">
    <mask
       id="path-1-inside-1_60_3003"
       fill="#ffffff">
      <path
         fill-rule="evenodd"
         clip-rule="evenodd"
         d="M 6,3 C 4.34315,3 3,4.34315 3,6 v 2 c 0,1.65685 1.34315,3 3,3 h 2 c 1.65685,0 3,-1.34315 3,-3 V 6 C 11,4.34315 9.65685,3 8,3 Z m 0,10 c -1.65685,0 -3,1.3431 -3,3 v 2 c 0,1.6569 1.34315,3 3,3 h 2 c 1.65685,0 3,-1.3431 3,-3 V 16 C 11,14.3431 9.65685,13 8,13 Z m 7,-7 c 0,-1.65685 1.3431,-3 3,-3 h 2 c 1.6569,0 3,1.34315 3,3 v 2 c 0,1.65685 -1.3431,3 -3,3 H 16 C 14.3431,11 13,9.65685 13,8 Z m 3,7 c -1.6569,0 -3,1.3431 -3,3 v 2 c 0,1.6569 1.3431,3 3,3 h 2 c 1.6569,0 3,-1.3431 3,-3 v -2 c 0,-1.6569 -1.3431,-3 -3,-3 z"
         id="path1" />
    </mask>
    <path
       d="M 4.5,6 C 4.5,5.17157 5.17157,4.5 6,4.5 v -3 C 3.51472,1.5 1.5,3.51472 1.5,6 Z m 0,2 V 6 h -3 V 8 Z M 6,9.5 C 5.17157,9.5 4.5,8.82843 4.5,8 h -3 c 0,2.4853 2.01472,4.5 4.5,4.5 z m 2,0 H 6 v 3 H 8 Z M 9.5,8 C 9.5,8.82843 8.82843,9.5 8,9.5 v 3 c 2.4853,0 4.5,-2.0147 4.5,-4.5 z m 0,-2 v 2 h 3 V 6 Z M 8,4.5 c 0.82843,0 1.5,0.67157 1.5,1.5 h 3 C 12.5,3.51472 10.4853,1.5 8,1.5 Z m -2,0 h 2 v -3 H 6 Z M 4.5,16 c 0,-0.8284 0.67157,-1.5 1.5,-1.5 v -3 c -2.48528,0 -4.5,2.0147 -4.5,4.5 z m 0,2 v -2 h -3 v 2 z M 6,19.5 C 5.17157,19.5 4.5,18.8284 4.5,18 h -3 c 0,2.4853 2.01472,4.5 4.5,4.5 z m 2,0 H 6 v 3 H 8 Z M 9.5,18 c 0,0.8284 -0.67157,1.5 -1.5,1.5 v 3 c 2.4853,0 4.5,-2.0147 4.5,-4.5 z m 0,-2 v 2 h 3 V 16 Z M 8,14.5 c 0.82843,0 1.5,0.6716 1.5,1.5 h 3 c 0,-2.4853 -2.0147,-4.5 -4.5,-4.5 z m -2,0 h 2 v -3 H 6 Z m 10,-13 c -2.4853,0 -4.5,2.01472 -4.5,4.5 h 3 c 0,-0.82843 0.6716,-1.5 1.5,-1.5 z m 2,0 h -2 v 3 h 2 z M 22.5,6 C 22.5,3.51472 20.4853,1.5 18,1.5 v 3 c 0.8284,0 1.5,0.67157 1.5,1.5 z m 0,2 V 6 h -3 V 8 Z M 18,12.5 c 2.4853,0 4.5,-2.0147 4.5,-4.5 h -3 c 0,0.82843 -0.6716,1.5 -1.5,1.5 z m -2,0 h 2 v -3 H 16 Z M 11.5,8 c 0,2.4853 2.0147,4.5 4.5,4.5 v -3 C 15.1716,9.5 14.5,8.82843 14.5,8 Z m 0,-2 v 2 h 3 V 6 Z m 3,10 c 0,-0.8284 0.6716,-1.5 1.5,-1.5 v -3 c -2.4853,0 -4.5,2.0147 -4.5,4.5 z m 0,2 v -2 h -3 v 2 z m 1.5,1.5 c -0.8284,0 -1.5,-0.6716 -1.5,-1.5 h -3 c 0,2.4853 2.0147,4.5 4.5,4.5 z m 2,0 h -2 v 3 h 2 z M 19.5,18 c 0,0.8284 -0.6716,1.5 -1.5,1.5 v 3 c 2.4853,0 4.5,-2.0147 4.5,-4.5 z m 0,-2 v 2 h 3 V 16 Z M 18,14.5 c 0.8284,0 1.5,0.6716 1.5,1.5 h 3 c 0,-2.4853 -2.0147,-4.5 -4.5,-4.5 z m -2,0 h 2 v -3 h -2 z"
       fill="#939393"
       mask="url(#path-1-inside-1_60_3003)"
       id="path2" />
  </g>
  <defs
     id="defs2">
    <clipPath
       id="clip0_60_3003">
      <rect
         width="24"
         height="24"
         fill="#ffffff"
         id="rect2"
         x="0"
         y="0" />
    </clipPath>
  </defs>
</svg>
