<svg width="23" height="22" viewBox="0 0 23 22" fill="none" xmlns="http://www.w3.org/2000/svg">
<path d="M15.6408 14.9984L16.1594 14.4574L14.9213 13.292L14.4028 13.833L15.6408 14.9984ZM17.8654 14.2296L20.0402 15.4703L20.8921 14.0037L18.7172 12.763L17.8654 14.2296ZM20.4599 18.0424L18.8428 19.7297L20.0809 20.8951L21.698 19.2078L20.4599 18.0424ZM17.8698 20.2703C16.2363 20.4302 11.974 20.2938 7.34753 15.4666L6.10948 16.632C11.1516 21.893 15.9614 22.1575 18.0375 21.9544L17.8698 20.2703ZM7.34753 15.4666C2.93514 10.8626 2.19501 6.9792 2.10276 5.27587L0.397687 5.36656C0.510668 7.45281 1.40448 11.7229 6.10948 16.632L7.34753 15.4666ZM8.91317 7.9788L9.23966 7.6381L8.0016 6.4727L7.67511 6.81336L8.91317 7.9788ZM9.49616 3.39677L8.06071 1.38469L6.66647 2.36165L8.10192 4.37372L9.49616 3.39677ZM3.20223 0.950912L1.41548 2.8152L2.65353 3.98063L4.44028 2.11634L3.20223 0.950912ZM8.29413 7.39607C7.67511 6.81336 7.67432 6.81418 7.67352 6.81501L7.67192 6.8167C7.67084 6.81785 7.66973 6.81901 7.66862 6.82021C7.66637 6.8226 7.66405 6.82509 7.66166 6.8277C7.65689 6.8329 7.65183 6.83853 7.6465 6.8446C7.63586 6.85674 7.62415 6.87062 7.61164 6.88628C7.58662 6.91763 7.55831 6.95614 7.52861 7.00213C7.46906 7.09436 7.40447 7.21583 7.34978 7.36816C7.23856 7.67792 7.17795 8.08812 7.25369 8.60042C7.40248 9.60686 8.06792 10.9603 9.80658 12.7744L11.0446 11.609C9.41946 9.91327 9.01916 8.86893 8.94317 8.35505C8.90652 8.10719 8.94377 7.97655 8.9585 7.93548C8.96677 7.91247 8.97219 7.90604 8.96689 7.91427C8.96432 7.91822 8.9592 7.92567 8.9506 7.9365C8.94628 7.9418 8.9411 7.94812 8.93491 7.95511C8.93181 7.95872 8.92845 7.96245 8.92485 7.96639C8.92304 7.96831 8.92116 7.97034 8.91921 7.97237C8.91824 7.9735 8.91725 7.97452 8.91624 7.97553L8.91471 7.97722C8.91394 7.97801 8.91317 7.9788 8.29413 7.39607ZM9.80658 12.7744C11.5401 14.5832 12.8494 15.2943 13.8483 15.4551C14.3609 15.5375 14.7758 15.4716 15.09 15.3489C15.2435 15.2889 15.365 15.2184 15.4562 15.1543C15.5017 15.1223 15.5396 15.0919 15.5701 15.0654C15.5855 15.0521 15.5989 15.0397 15.6107 15.0284C15.6166 15.0229 15.622 15.0174 15.6271 15.0125C15.6296 15.01 15.632 15.0075 15.6342 15.0052C15.6354 15.004 15.6365 15.0029 15.6376 15.0018L15.6392 15.0001C15.64 14.9992 15.6408 14.9984 15.0218 14.4157C14.4028 13.833 14.4036 13.8322 14.4044 13.8314L14.4058 13.8297C14.4069 13.8287 14.4079 13.8277 14.4089 13.8267C14.411 13.8246 14.4129 13.8226 14.4147 13.8207C14.4186 13.817 14.4222 13.8134 14.4256 13.8101C14.4325 13.8035 14.4387 13.7979 14.4442 13.7932C14.455 13.7837 14.4631 13.7776 14.4683 13.774C14.479 13.7664 14.4779 13.769 14.4634 13.7747C14.4415 13.7832 14.338 13.8194 14.122 13.7847C13.6637 13.7109 12.675 13.3101 11.0446 11.609L9.80658 12.7744ZM8.06071 1.38469C6.90689 -0.232627 4.59806 -0.505486 3.20223 0.950912L4.44028 2.11634C5.03546 1.49534 6.08323 1.54412 6.66647 2.36165L8.06071 1.38469ZM2.10276 5.27587C2.07836 4.82539 2.27629 4.37424 2.65353 3.98063L1.41548 2.8152C0.80549 3.45165 0.341862 4.33579 0.397687 5.36656L2.10276 5.27587ZM18.8428 19.7297C18.5252 20.0612 18.1929 20.2387 17.8698 20.2703L18.0375 21.9544C18.888 21.8712 19.5762 21.4217 20.0809 20.8951L18.8428 19.7297ZM9.23966 7.6381C10.3411 6.48889 10.4191 4.6904 9.49616 3.39677L8.10192 4.37372C8.58246 5.04731 8.50878 5.94351 8.0016 6.4727L9.23966 7.6381ZM20.0402 15.4703C20.9746 16.0034 21.1575 17.3146 20.4599 18.0424L21.698 19.2078C23.1834 17.6578 22.7509 15.064 20.8921 14.0037L20.0402 15.4703ZM16.1594 14.4574C16.5981 13.9996 17.2818 13.8967 17.8654 14.2296L18.7172 12.763C17.4667 12.0497 15.9159 12.2542 14.9213 13.292L16.1594 14.4574Z" fill="#565656"/>
</svg>
