<?xml version="1.0" encoding="UTF-8" standalone="no"?>
<svg
   width="18"
   height="16"
   viewBox="0 0 18 16"
   fill="none"
   version="1.1"
   id="svg2"
   sodipodi:docname="store.svg"
   inkscape:version="1.3 (1:1.3+202307231459+0e150ed6c4)"
   xmlns:inkscape="http://www.inkscape.org/namespaces/inkscape"
   xmlns:sodipodi="http://sodipodi.sourceforge.net/DTD/sodipodi-0.dtd"
   xmlns="http://www.w3.org/2000/svg"
   xmlns:svg="http://www.w3.org/2000/svg">
  <sodipodi:namedview
     id="namedview2"
     pagecolor="#ffffff"
     bordercolor="#000000"
     borderopacity="0.25"
     inkscape:showpageshadow="2"
     inkscape:pageopacity="0.0"
     inkscape:pagecheckerboard="0"
     inkscape:deskcolor="#d1d1d1"
     inkscape:zoom="33.708333"
     inkscape:cx="8.9888752"
     inkscape:cy="7.9950556"
     inkscape:window-width="1920"
     inkscape:window-height="1012"
     inkscape:window-x="0"
     inkscape:window-y="0"
     inkscape:window-maximized="1"
     inkscape:current-layer="svg2" />
  <g
     clip-path="url(#clip0_60_2750)"
     id="g1"
     transform="translate(-3,-4)">
    <rect
       x="3.75"
       y="4.75"
       width="16.5"
       height="14.5"
       rx="3.25"
       stroke="#939393"
       stroke-width="1.5"
       id="rect1" />
    <path
       d="m 15.25,9 c 0,0.4268 -0.0841,0.84941 -0.2474,1.2437 -0.1633,0.3943 -0.4027,0.7526 -0.7045,1.0544 -0.3018,0.3018 -0.6601,0.5412 -1.0544,0.7045 C 12.8494,12.1659 12.4268,12.25 12,12.25 11.5732,12.25 11.1506,12.1659 10.7563,12.0026 10.362,11.8393 10.0037,11.5999 9.7019,11.2981 9.40011,10.9963 9.16072,10.638 8.99739,10.2437 8.83406,9.84941 8.75,9.4268 8.75,9"
       stroke="#939393"
       stroke-width="1.5"
       stroke-linecap="round"
       id="path1" />
  </g>
  <defs
     id="defs2">
    <clipPath
       id="clip0_60_2750">
      <rect
         width="24"
         height="24"
         fill="#ffffff"
         id="rect2"
         x="0"
         y="0" />
    </clipPath>
  </defs>
</svg>
