<svg width="19" height="24" viewBox="0 0 19 24" fill="none" xmlns="http://www.w3.org/2000/svg">
<path d="M16.9138 10.2219C16.9138 14.4626 13.4305 17.9163 9.11384 17.9163C4.7972 17.9163 1.31384 14.4626 1.31384 10.2219C1.31384 5.98123 4.7972 2.52759 9.11384 2.52759C13.4305 2.52759 16.9138 5.98123 16.9138 10.2219Z" stroke="#939393" stroke-width="1.5"/>
<path d="M11.5139 8.44457C11.5139 9.73979 10.4482 10.8056 9.11387 10.8056C7.77956 10.8056 6.71387 9.73979 6.71387 8.44457C6.71387 7.14935 7.77956 6.0835 9.11387 6.0835C10.4482 6.0835 11.5139 7.14935 11.5139 8.44457Z" stroke="#939393" stroke-width="1.5"/>
<mask id="path-3-inside-1_60_3425" fill="white">
<path d="M14.6929 16.4843C14.3211 15.32 13.5854 14.302 12.5915 13.5763C11.5976 12.8506 10.3964 12.4545 9.1604 12.4448C7.92439 12.435 6.71701 12.8123 5.71151 13.5223C4.70601 14.2323 3.95405 15.2386 3.56351 16.3968L4.88373 16.831C5.18137 15.9483 5.75447 15.1813 6.5208 14.6402C7.28713 14.0991 8.20732 13.8116 9.14933 13.819C10.0913 13.8264 11.0068 14.1283 11.7643 14.6814C12.5218 15.2345 13.0825 16.0104 13.3659 16.8977L14.6929 16.4843Z"/>
</mask>
<path d="M14.6929 16.4843C14.3211 15.32 13.5854 14.302 12.5915 13.5763C11.5976 12.8506 10.3964 12.4545 9.1604 12.4448C7.92439 12.435 6.71701 12.8123 5.71151 13.5223C4.70601 14.2323 3.95405 15.2386 3.56351 16.3968L4.88373 16.831C5.18137 15.9483 5.75447 15.1813 6.5208 14.6402C7.28713 14.0991 8.20732 13.8116 9.14933 13.819C10.0913 13.8264 11.0068 14.1283 11.7643 14.6814C12.5218 15.2345 13.0825 16.0104 13.3659 16.8977L14.6929 16.4843Z" stroke="#939393" stroke-width="3" mask="url(#path-3-inside-1_60_3425)"/>
<path d="M13.25 1.01036C13.7141 0.742414 14.2859 0.742414 14.75 1.01036L17.0801 2.35566C17.5442 2.62361 17.8301 3.1188 17.8301 3.6547V6.3453C17.8301 6.8812 17.5442 7.37639 17.0801 7.64434L14.75 8.98964C14.2859 9.25759 13.7141 9.25759 13.25 8.98964L10.9199 7.64434C10.4558 7.37639 10.1699 6.8812 10.1699 6.3453V3.6547C10.1699 3.1188 10.4558 2.62361 10.9199 2.35566L13.25 1.01036Z" fill="white" stroke="#565656"/>
<circle cx="14" cy="5" r="1.5" stroke="#565656"/>
</svg>
