<svg width="18" height="20" viewBox="0 0 18 20" fill="none" xmlns="http://www.w3.org/2000/svg">
<path d="M17.2409 13.7745L16.1349 11.9285C15.7159 11.2295 15.4949 10.4295 15.4949 9.61652V6.9895C15.4949 3.4105 12.5809 0.499512 8.9999 0.499512C5.41889 0.499512 2.50489 3.4105 2.50489 6.9895V9.61652C2.50489 10.4305 2.28389 11.2295 1.86489 11.9285L0.758883 13.7745C0.420883 14.3375 0.412895 15.0145 0.736895 15.5865C1.0609 16.1585 1.64688 16.5005 2.30388 16.5005H6.56688C6.53288 16.6655 6.50089 16.8315 6.50089 17.0005C6.50089 18.3785 7.62289 19.5005 9.00089 19.5005C10.3789 19.5005 11.5009 18.3785 11.5009 17.0005C11.5009 16.8315 11.4689 16.6655 11.4349 16.5005H15.6979C16.3559 16.5005 16.9419 16.1595 17.2659 15.5865C17.5869 15.0145 17.5789 14.3375 17.2409 13.7745ZM10.4989 16.9995C10.4989 17.8265 9.82589 18.4995 8.99889 18.4995C8.17189 18.4995 7.49889 17.8265 7.49889 16.9995C7.49889 16.8275 7.53889 16.6605 7.59589 16.4995H10.4019C10.4589 16.6605 10.4989 16.8265 10.4989 16.9995ZM16.3929 15.0935C16.2489 15.3475 15.9879 15.4995 15.6959 15.4995H2.30188C2.00988 15.4995 1.74889 15.3475 1.60489 15.0935C1.46089 14.8395 1.46489 14.5395 1.61489 14.2895L2.72089 12.4435C3.23289 11.5895 3.50389 10.6125 3.50389 9.61752V6.99051C3.50389 3.96351 5.96889 1.50052 8.99889 1.50052C12.0289 1.50052 14.4939 3.96351 14.4939 6.99051V9.61752C14.4939 10.6125 14.7649 11.5895 15.2769 12.4435L16.3829 14.2895C16.5329 14.5385 16.5369 14.8395 16.3929 15.0935Z" fill="#ffffff"/>
</svg>
