<svg width="22" height="20" viewBox="0 0 22 20" fill="none" xmlns="http://www.w3.org/2000/svg">
<path d="M8.625 18.25C8.625 18.4725 8.55902 18.69 8.4354 18.875C8.31179 19.06 8.13609 19.2042 7.93052 19.2894C7.72495 19.3745 7.49875 19.3968 7.28052 19.3534C7.06229 19.31 6.86184 19.2028 6.70451 19.0455C6.54717 18.8882 6.44003 18.6877 6.39662 18.4695C6.35321 18.2512 6.37549 18.025 6.46064 17.8195C6.54578 17.6139 6.68998 17.4382 6.87498 17.3146C7.05999 17.191 7.2775 17.125 7.5 17.125C7.79837 17.125 8.08452 17.2435 8.2955 17.4545C8.50647 17.6655 8.625 17.9516 8.625 18.25ZM17.25 17.125C17.0275 17.125 16.81 17.191 16.625 17.3146C16.44 17.4382 16.2958 17.6139 16.2106 17.8195C16.1255 18.025 16.1032 18.2512 16.1466 18.4695C16.19 18.6877 16.2972 18.8882 16.4545 19.0455C16.6118 19.2028 16.8123 19.31 17.0305 19.3534C17.2488 19.3968 17.475 19.3745 17.6805 19.2894C17.8861 19.2042 18.0618 19.06 18.1854 18.875C18.309 18.69 18.375 18.4725 18.375 18.25C18.375 17.9516 18.2565 17.6655 18.0455 17.4545C17.8345 17.2435 17.5484 17.125 17.25 17.125ZM21.15 4.85312L18.675 13.5156C18.5586 13.906 18.32 14.2488 17.9943 14.4935C17.6686 14.7382 17.273 14.8719 16.8656 14.875H7.88438C7.47701 14.8719 7.08138 14.7382 6.75567 14.4935C6.42997 14.2488 6.19138 13.906 6.075 13.5156L3.60938 4.8625V4.84375L2.69063 1.64688C2.66664 1.56849 2.61822 1.49984 2.55244 1.45092C2.48666 1.40201 2.40697 1.37541 2.325 1.375H0.75C0.650544 1.375 0.555161 1.33549 0.484835 1.26516C0.414509 1.19484 0.375 1.09946 0.375 1C0.375 0.900544 0.414509 0.805161 0.484835 0.734835C0.555161 0.664509 0.650544 0.625 0.75 0.625H2.325C2.57004 0.625253 2.80842 0.704848 3.00445 0.851874C3.20049 0.998901 3.34365 1.20545 3.4125 1.44063L4.24688 4.375H20.7844C20.8427 4.37425 20.9004 4.38747 20.9526 4.41357C21.0048 4.43967 21.05 4.47787 21.0844 4.525C21.12 4.57088 21.1444 4.6244 21.1558 4.68134C21.1672 4.73828 21.1652 4.79708 21.15 4.85312ZM20.2875 5.125H4.4625L6.79688 13.3094C6.86573 13.5445 7.00889 13.7511 7.20492 13.8981C7.40096 14.0452 7.63933 14.1247 7.88438 14.125H16.8656C17.1107 14.1247 17.349 14.0452 17.5451 13.8981C17.7411 13.7511 17.8843 13.5445 17.9531 13.3094L20.2875 5.125Z" fill="#ffffff"/>
</svg>