<svg width="26" height="16" viewBox="0 0 26 16" fill="none" xmlns="http://www.w3.org/2000/svg">
<path d="M12.875 0.75H10.8969C10.7938 0.75 10.7094 0.834375 10.7094 0.9375V11.5688H10.5312L3.16875 0.83125C3.13437 0.78125 3.075 0.75 3.01562 0.75H0.9375C0.834375 0.75 0.75 0.834375 0.75 0.9375V15.4375C0.75 15.5406 0.834375 15.625 0.9375 15.625H2.89687C3 15.625 3.08437 15.5406 3.08437 15.4375V4.65938H3.2625L10.7063 15.5438C10.7406 15.5938 10.8 15.625 10.8625 15.625H12.875C12.9781 15.625 13.0625 15.5406 13.0625 15.4375V0.9375C13.0625 0.834375 12.9781 0.75 12.875 0.75ZM24.6875 13.6562H15.1875C15.05 13.6562 14.9375 13.7688 14.9375 13.9062V15.4062C14.9375 15.5437 15.05 15.6562 15.1875 15.6562H24.6875C24.825 15.6562 24.9375 15.5437 24.9375 15.4062V13.9062C24.9375 13.7688 24.825 13.6562 24.6875 13.6562ZM19.9312 11.6875C21.5844 11.6875 22.9062 11.15 23.875 10.0719C24.7938 9.04375 25.25 7.70312 25.25 6.04688C25.25 4.3875 24.7938 3.03125 23.875 2.00625C22.9094 0.91875 21.5875 0.375 19.9312 0.375C18.2531 0.375 16.9344 0.921875 15.9844 2.025C15.0719 3.05937 14.6281 4.39687 14.6281 6.04688C14.6281 7.68437 15.075 9.02187 15.9875 10.0562C16.9437 11.1406 18.2687 11.6875 19.9312 11.6875ZM17.6969 3.44687C18.225 2.80312 18.9563 2.48125 19.9281 2.48125C20.9125 2.48125 21.6406 2.78125 22.1469 3.39062C22.6594 4.025 22.925 4.90937 22.925 6.04375C22.925 7.17812 22.6625 8.04687 22.15 8.66562C21.6344 9.27187 20.9 9.57812 19.9281 9.57812C18.9531 9.57812 18.2094 9.25625 17.6969 8.62812C17.1875 8 16.9312 7.15 16.9312 6.04688C16.9344 4.92812 17.1875 4.07812 17.6969 3.44687Z" fill="black"/>
</svg>
