<svg width="20" height="20" viewBox="0 0 20 20" fill="none" xmlns="http://www.w3.org/2000/svg">
<path d="M15 0.75H5C2.381 0.75 0.25 2.881 0.25 5.5V18.5C0.25 18.803 0.433013 19.077 0.713013 19.193C0.806013 19.232 0.903 19.25 1 19.25C1.195 19.25 1.387 19.174 1.53 19.03L3.944 16.616C4.18 16.38 4.494 16.25 4.828 16.25H15C17.619 16.25 19.75 14.119 19.75 11.5V5.5C19.75 2.881 17.619 0.75 15 0.75ZM18.25 11.5C18.25 13.292 16.792 14.75 15 14.75H4.82901C4.09401 14.75 3.404 15.036 2.884 15.556L1.75 16.6899V5.5C1.75 3.708 3.208 2.25 5 2.25H15C16.792 2.25 18.25 3.708 18.25 5.5V11.5ZM7 8.5C7 9.052 6.552 9.5 6 9.5C5.448 9.5 5 9.052 5 8.5C5 7.948 5.448 7.5 6 7.5C6.552 7.5 7 7.948 7 8.5ZM11 8.5C11 9.052 10.552 9.5 10 9.5C9.448 9.5 9 9.052 9 8.5C9 7.948 9.448 7.5 10 7.5C10.552 7.5 11 7.948 11 8.5ZM15 8.5C15 9.052 14.552 9.5 14 9.5C13.448 9.5 13 9.052 13 8.5C13 7.948 13.448 7.5 14 7.5C14.552 7.5 15 7.948 15 8.5Z" fill="#0B344B"/>
</svg>
