<svg width="20" height="19" viewBox="0 0 20 19" fill="none" xmlns="http://www.w3.org/2000/svg">
<path d="M14.7036 15.3327V15.8398C14.7036 16.7138 14.3806 17.5508 13.7946 18.1978C13.6466 18.3608 13.4426 18.4438 13.2386 18.4438C13.0586 18.4438 12.8786 18.3798 12.7346 18.2498C12.4276 17.9718 12.4046 17.4977 12.6826 17.1897C13.0176 16.8197 13.2036 16.3398 13.2036 15.8388V15.3317C13.2036 13.9727 12.2886 12.7957 10.9776 12.4707C10.7526 12.4147 10.5126 12.4447 10.3196 12.5537C8.53564 13.5327 6.36263 13.5278 4.59363 12.5578C4.39263 12.4438 4.15359 12.4138 3.92859 12.4698C2.61659 12.7958 1.7016 13.9717 1.7016 15.3307V15.8377C1.7016 16.3377 1.8866 16.8178 2.2226 17.1888C2.5006 17.4958 2.47759 17.9697 2.17059 18.2477C1.86359 18.5267 1.39063 18.5037 1.11163 18.1957C0.525633 17.5487 0.202637 16.7117 0.202637 15.8377V15.3307C0.202637 13.2807 1.58559 11.5057 3.56659 11.0137C4.15959 10.8667 4.79963 10.9518 5.32263 11.2458C6.63463 11.9658 8.2616 11.9697 9.5896 11.2417C10.1066 10.9507 10.7476 10.8667 11.3396 11.0137C13.3206 11.5087 14.7036 13.2837 14.7036 15.3327ZM16.3396 11.0168C15.9376 10.9178 15.5306 11.1628 15.4306 11.5638C15.3306 11.9658 15.5766 12.3727 15.9776 12.4727C17.2886 12.7977 18.2036 13.9748 18.2036 15.3338V15.8407C18.2036 16.3417 18.0186 16.8207 17.6826 17.1917C17.4046 17.4987 17.4276 17.9727 17.7346 18.2517C17.8786 18.3817 18.0586 18.4457 18.2386 18.4457C18.4426 18.4457 18.6466 18.3627 18.7946 18.1997C19.3806 17.5527 19.7036 16.7157 19.7036 15.8417V15.3347C19.7036 13.2837 18.3206 11.5088 16.3396 11.0168ZM2.70361 5.69473C2.70361 3.07573 4.83461 0.944733 7.45361 0.944733C10.0726 0.944733 12.2036 3.07573 12.2036 5.69473C12.2036 8.31373 10.0726 10.4447 7.45361 10.4447C4.83461 10.4447 2.70361 8.31373 2.70361 5.69473ZM4.20361 5.69473C4.20361 7.48673 5.66161 8.94473 7.45361 8.94473C9.24561 8.94473 10.7036 7.48673 10.7036 5.69473C10.7036 3.90273 9.24561 2.44473 7.45361 2.44473C5.66161 2.44473 4.20361 3.90273 4.20361 5.69473ZM17.2036 5.69473C17.2036 3.30273 15.4166 1.27672 13.0466 0.98172C12.6376 0.93272 12.2606 1.22172 12.2096 1.63272C12.1586 2.04372 12.4496 2.41876 12.8606 2.46976C14.4816 2.67176 15.7036 4.05873 15.7036 5.69473C15.7036 6.68573 15.2596 7.6107 14.4846 8.2327C14.1616 8.4917 14.1096 8.96377 14.3686 9.28677C14.5166 9.47177 14.7346 9.56778 14.9536 9.56778C15.1186 9.56778 15.2846 9.51374 15.4226 9.40274C16.5546 8.49474 17.2036 7.14273 17.2036 5.69473Z" fill="#565656"/>
</svg>
