<svg width="18" height="18" viewBox="0 0 18 18" fill="none" xmlns="http://www.w3.org/2000/svg">
<path d="M1.375 9C1.375 4.79614 4.79614 1.375 9 1.375C13.2039 1.375 16.625 4.79614 16.625 9C16.625 13.2039 13.2039 16.625 9 16.625C4.79614 16.625 1.375 13.2039 1.375 9ZM1.625 9C1.625 13.067 4.93302 16.375 9 16.375C13.067 16.375 16.375 13.067 16.375 9C16.375 4.93302 13.067 1.625 9 1.625C4.93302 1.625 1.625 4.93302 1.625 9ZM9.33333 5.66667C9.33333 5.85052 9.18386 6 9 6C8.81614 6 8.66667 5.85052 8.66667 5.66667C8.66667 5.48281 8.81614 5.33333 9 5.33333C9.18386 5.33333 9.33333 5.48281 9.33333 5.66667ZM9.125 9V12.3333C9.125 12.4022 9.06886 12.4583 9 12.4583C8.93114 12.4583 8.875 12.4022 8.875 12.3333V9C8.875 8.93114 8.93114 8.875 9 8.875C9.06886 8.875 9.125 8.93114 9.125 9Z" stroke="#95D5EC"/>
</svg>
