<svg width="18" height="18" viewBox="0 0 18 18" fill="none" xmlns="http://www.w3.org/2000/svg">
<path d="M12.8422 0.854743H12.8578L12.8734 0.853769C13.9293 0.787774 14.9712 1.15148 15.7599 1.86582C16.4738 2.6541 16.8389 3.69704 16.78 4.76428L16.7793 4.77804V4.79182L16.7793 12.5671V12.5826L16.7802 12.5981C16.8462 13.6603 16.4757 14.7033 15.7673 15.494C14.9792 16.2072 13.9297 16.5712 12.8734 16.5052L12.8578 16.5042H12.8422L5.06682 16.5042H5.05132L5.03584 16.5051C3.97101 16.5712 2.92912 16.2071 2.14079 15.4931C1.42677 14.7048 1.06265 13.6629 1.12875 12.5981L1.12971 12.5826V12.5671L1.12971 4.79182V4.77632L1.12875 4.76084C1.06265 3.69602 1.42677 2.65415 2.14079 1.86582C2.92912 1.15181 3.97101 0.78769 5.03584 0.853783L5.05132 0.854743L5.06682 0.854743L12.8422 0.854743ZM10.4074 3.80559L10.4048 3.80821L9.84966 4.37167C9.84907 4.37226 9.84847 4.37286 9.84788 4.37346C9.57115 4.65213 9.57174 5.10888 9.84966 5.38679L9.85078 5.38791L9.85079 5.38792L9.85082 5.38795L9.85097 5.38809L9.85153 5.38865L9.85377 5.39088L9.86255 5.3996L9.89606 5.43291L9.89613 5.43298L10.1008 5.63649C10.219 5.75414 10.3665 5.90101 10.5147 6.04869C10.5147 6.04869 10.5147 6.0487 10.5147 6.0487C10.5149 6.04885 10.515 6.04901 10.5152 6.04916L11.0172 6.55097C11.0174 6.55112 11.0175 6.55128 11.0177 6.55143C11.0698 6.60377 11.1124 6.64675 11.1424 6.67729L11.1754 6.71111L11.1756 6.71131L11.1833 6.7197C11.19 6.7271 11.1946 6.73465 11.1974 6.74156C11.2 6.74804 11.2017 6.75541 11.2017 6.76478C11.2017 6.79327 11.1792 6.81421 11.1522 6.81421C11.15 6.81421 11.1465 6.81369 11.1427 6.81209C11.1406 6.81121 11.1393 6.81041 11.1388 6.81007L11.1387 6.81L11.1384 6.80975L9.74926 5.42891C9.74904 5.42869 9.74882 5.42847 9.7486 5.42825C9.48667 5.16705 9.05405 5.16727 8.79241 5.4289L9.14596 5.78246L8.79241 5.42891L4.82149 9.3998C4.45665 9.76463 4.24533 10.253 4.23396 10.7739C4.23396 10.7742 4.23395 10.7746 4.23394 10.775L4.18404 12.7459L4.18388 12.7459V12.7586C4.18388 12.9702 4.25104 13.2077 4.43855 13.3952C4.60775 13.5644 4.83503 13.6582 5.07514 13.6582H7.03147C7.56464 13.6582 8.0716 13.4468 8.45376 13.0756L8.4538 13.0756L8.45944 13.07L14.062 7.4508L14.062 7.45081L14.0644 7.44844C14.762 6.73932 14.7661 5.59244 14.0615 4.8878L12.9793 3.80559C12.2679 3.09419 11.1188 3.09419 10.4074 3.80559Z" stroke="#1F2428"/>
</svg>
