<svg width="14" height="14" viewBox="0 0 14 14" fill="none" xmlns="http://www.w3.org/2000/svg">
<path d="M12.6555 1.3456C12.1108 0.800268 11.3861 0.500305 10.6141 0.500305C9.84347 0.500305 9.11879 0.800268 8.57279 1.3456L1.55078 8.36766C1.27878 8.63899 1.10146 8.9836 1.03812 9.36294L0.511472 12.5216C0.466806 12.789 0.554132 13.0623 0.746132 13.2536C0.904799 13.4123 1.11944 13.4997 1.34078 13.4997C1.38611 13.4997 1.43281 13.4963 1.47815 13.4883L4.63745 12.9616C5.01612 12.899 5.36012 12.7216 5.63212 12.4496L12.6541 5.42763C13.1995 4.8823 13.5001 4.15762 13.5001 3.38629C13.5001 2.61496 13.2015 1.89093 12.6555 1.3456ZM4.9268 11.743C4.8028 11.867 4.64681 11.947 4.47481 11.9756L1.53613 12.465L2.02547 9.527C2.05414 9.35433 2.1348 9.19835 2.25814 9.07501L7.64681 3.68634L10.3148 6.35431L4.9268 11.743ZM11.9488 4.72101L11.0221 5.6476L8.35412 2.97963L9.2808 2.05296C9.63747 1.69696 10.1108 1.50031 10.6148 1.50031C11.1188 1.50031 11.5928 1.69629 11.9488 2.05296C12.3048 2.40962 12.5015 2.88294 12.5015 3.38694C12.5015 3.89094 12.3048 4.36434 11.9488 4.72101Z" fill="#EB6018"/>
</svg>
