<svg width="20" height="20" viewBox="0 0 20 20" fill="none" xmlns="http://www.w3.org/2000/svg">
<path d="M19.4401 14.6447C19.4181 14.5197 19.393 14.4097 19.365 14.3117C19.216 13.7787 18.7501 13.3737 18.1791 13.2787L13.847 12.5577C13.303 12.4657 12.751 12.6777 12.415 13.1067C12.364 13.1707 12.3161 13.2367 12.2701 13.3037C12.1081 13.5407 11.8381 13.6297 11.5991 13.5257C9.29506 12.5237 7.47408 10.7027 6.47308 8.39867C6.36908 8.15967 6.45604 7.89168 6.69104 7.73168C6.78004 7.67068 6.86605 7.60669 6.95105 7.53869C7.36905 7.20069 7.57606 6.66068 7.49206 6.12768L6.82208 1.87267C6.73408 1.31267 6.35008 0.856693 5.82208 0.681693C5.68708 0.637693 5.53008 0.595675 5.34808 0.562675C4.15608 0.349675 2.93608 0.687728 1.99908 1.49273C1.01308 2.34073 0.467073 3.57073 0.502073 4.86773C0.717073 12.8557 7.14408 19.2827 15.1321 19.4987C15.1711 19.4997 15.209 19.4997 15.248 19.4997C16.492 19.4997 17.668 18.9607 18.49 18.0097C19.302 17.0717 19.6481 15.8447 19.4401 14.6447ZM17.7321 17.3587C17.0821 18.1107 16.1491 18.5387 15.1581 18.5007C7.70008 18.2997 1.70104 12.2997 1.50104 4.8427C1.47404 3.8477 1.89308 2.90471 2.65008 2.25371C3.21908 1.76471 3.92404 1.50371 4.64404 1.50371C4.81904 1.50371 4.99504 1.51871 5.17004 1.55071C5.29904 1.57371 5.41006 1.60272 5.50506 1.63372C5.67706 1.69072 5.80203 1.84269 5.83203 2.03069L6.50305 6.2857C6.53105 6.4667 6.46104 6.64869 6.32104 6.76269C6.25904 6.81369 6.19407 6.86173 6.12707 6.90673C5.49307 7.33773 5.25805 8.1157 5.55505 8.7987C6.65805 11.3367 8.66207 13.3407 11.2001 14.4447C11.8821 14.7397 12.6611 14.5057 13.0961 13.8687C13.1291 13.8207 13.164 13.7727 13.201 13.7257C13.311 13.5827 13.4951 13.5147 13.6821 13.5447L18.014 14.2657C18.204 14.2977 18.3561 14.4217 18.4011 14.5817C18.4211 14.6507 18.4381 14.7277 18.4531 14.8157C18.6121 15.7197 18.3491 16.6457 17.7321 17.3587Z" fill="#1F2428"/>
</svg>
