<svg width="18" height="18" viewBox="0 0 18 18" fill="none" xmlns="http://www.w3.org/2000/svg">
<path d="M5.55883 10.4143C6.45442 10.4143 7.17697 11.1378 7.17697 12.0499L7.17697 14.8927C7.17697 15.7975 6.45341 16.5275 5.55883 16.5275H2.74021C1.85269 16.5275 1.12207 15.7962 1.12207 14.8927L1.12207 12.0499C1.12207 11.1391 1.85168 10.4143 2.74021 10.4143L5.55883 10.4143ZM15.1823 10.4143C16.0708 10.4143 16.8004 11.1391 16.8004 12.0499V14.8927C16.8004 15.7962 16.0698 16.5275 15.1823 16.5275H12.3636C11.4691 16.5275 10.7455 15.7975 10.7455 14.8927L10.7455 12.0499C10.7455 11.1378 11.468 10.4143 12.3636 10.4143L15.1823 10.4143ZM5.55883 0.849548C6.45328 0.849548 7.17697 1.57944 7.17697 2.4852V5.328C7.17697 6.23986 6.45467 6.96282 5.55883 6.96282H2.74021C1.85142 6.96282 1.12207 6.23858 1.12207 5.328L1.12207 2.4852C1.12207 1.58073 1.85282 0.849548 2.74021 0.849548L5.55883 0.849548ZM15.1823 0.849548C16.0696 0.849548 16.8004 1.58073 16.8004 2.4852V5.328C16.8004 6.23858 16.071 6.96282 15.1823 6.96282L12.3636 6.96282C11.4678 6.96282 10.7455 6.23986 10.7455 5.328L10.7455 2.4852C10.7455 1.57944 11.4692 0.849548 12.3636 0.849548L15.1823 0.849548Z" stroke="#565656"/>
</svg>
