<svg width="20" height="21" viewBox="0 0 20 21" fill="none" xmlns="http://www.w3.org/2000/svg">
<path d="M9.95312 14.4313C9.21144 14.4313 8.48642 14.2114 7.86974 13.7993C7.25305 13.3873 6.77241 12.8016 6.48858 12.1164C6.20475 11.4312 6.13049 10.6772 6.27518 9.94975C6.41987 9.22232 6.77703 8.55413 7.30147 8.02969C7.82592 7.50524 8.49411 7.14809 9.22154 7.00339C9.94897 6.8587 10.703 6.93296 11.3882 7.21679C12.0734 7.50062 12.6591 7.98126 13.0711 8.59795C13.4832 9.21463 13.7031 9.93966 13.7031 10.6813C13.7021 11.6756 13.3066 12.6288 12.6036 13.3318C11.9006 14.0348 10.9474 14.4303 9.95312 14.4313ZM9.95312 8.43134C9.50812 8.43134 9.0731 8.5633 8.70309 8.81053C8.33308 9.05776 8.04469 9.40916 7.8744 9.8203C7.7041 10.2314 7.65954 10.6838 7.74636 11.1203C7.83317 11.5567 8.04747 11.9577 8.36213 12.2723C8.6768 12.587 9.07771 12.8013 9.51417 12.8881C9.95063 12.9749 10.403 12.9304 10.8142 12.7601C11.2253 12.5898 11.5767 12.3014 11.8239 11.9314C12.0712 11.5614 12.2031 11.1263 12.2031 10.6813C12.2026 10.0848 11.9654 9.51277 11.5435 9.09093C11.1217 8.66909 10.5497 8.43187 9.95312 8.43134ZM10.4531 20.4313H9.45312C8.85655 20.4308 8.28456 20.1936 7.86272 19.7717C7.44088 19.3499 7.20365 18.7779 7.20312 18.1813C7.20438 18.1092 7.18413 18.0384 7.14494 17.9778C7.10576 17.9172 7.04942 17.8697 6.98312 17.8413H6.97513C6.91473 17.8163 6.84828 17.8098 6.78419 17.8227C6.7201 17.8355 6.66125 17.867 6.61512 17.9133C6.18995 18.3337 5.61729 18.5712 5.0194 18.5751C4.42151 18.5791 3.84578 18.3491 3.41512 17.9343L2.71513 17.2283C2.50556 17.0192 2.3393 16.7709 2.22585 16.4974C2.11241 16.224 2.05402 15.9309 2.05402 15.6348C2.05402 15.3388 2.11241 15.0457 2.22585 14.7722C2.3393 14.4988 2.50556 14.2504 2.71513 14.0413C2.76476 13.9904 2.79847 13.9261 2.81214 13.8563C2.82582 13.7865 2.81886 13.7142 2.79213 13.6483C2.7677 13.586 2.72526 13.5324 2.67023 13.4943C2.6152 13.4561 2.55006 13.4353 2.48313 13.4343C2.18517 13.4372 1.8896 13.3811 1.61343 13.2693C1.33725 13.1574 1.08595 12.992 0.874011 12.7826C0.662067 12.5731 0.49367 12.3238 0.378526 12.049C0.263383 11.7742 0.203771 11.4793 0.203125 11.1813V10.1813C0.203655 9.58476 0.440877 9.01277 0.86272 8.59093C1.28456 8.16909 1.85655 7.93187 2.45312 7.93134C2.52516 7.9328 2.59597 7.91261 2.65641 7.87339C2.71684 7.83417 2.76412 7.77772 2.79213 7.71134V7.70334C2.81686 7.6429 2.82322 7.57651 2.81041 7.51248C2.79761 7.44844 2.7662 7.38961 2.72013 7.34334C2.5071 7.13547 2.33744 6.88741 2.22095 6.61352C2.10447 6.33963 2.04349 6.04535 2.04153 5.74772C2.03958 5.45009 2.0967 5.15504 2.20957 4.87964C2.32245 4.60424 2.48885 4.35397 2.69912 4.14334L3.40812 3.43434C3.83627 3.02422 4.40625 2.79527 4.99913 2.79527C5.592 2.79527 6.16198 3.02422 6.59013 3.43434C6.64065 3.48687 6.70572 3.52313 6.77699 3.53845C6.84825 3.55377 6.92247 3.54746 6.99012 3.52034C7.05215 3.496 7.10548 3.45367 7.14326 3.39878C7.18104 3.3439 7.20154 3.27896 7.20212 3.21234C7.19909 2.91447 7.25502 2.61895 7.3667 2.34279C7.47838 2.06664 7.64359 1.81531 7.85283 1.60328C8.06206 1.39126 8.31118 1.22273 8.58583 1.10741C8.86049 0.992083 9.15524 0.932243 9.45312 0.931335H10.4531C11.0497 0.931865 11.6217 1.16909 12.0435 1.59093C12.4654 2.01277 12.7026 2.58476 12.7031 3.18134C12.6996 3.25171 12.7178 3.32148 12.7554 3.38108C12.793 3.44069 12.8481 3.48723 12.9131 3.51434C12.9764 3.54128 13.046 3.54966 13.1138 3.53851C13.1816 3.52735 13.2449 3.49711 13.2961 3.45134C13.505 3.23725 13.7546 3.06715 14.0303 2.95105C14.3059 2.83495 14.602 2.7752 14.9011 2.77534C15.1967 2.77451 15.4895 2.83233 15.7626 2.94545C16.0357 3.05857 16.2837 3.22474 16.4921 3.43434L17.1981 4.13434C17.4071 4.34327 17.5728 4.59131 17.6859 4.86429C17.7989 5.13728 17.8571 5.42986 17.8571 5.72534C17.8571 6.02081 17.7989 6.3134 17.6859 6.58638C17.5728 6.85936 17.4071 7.1074 17.1981 7.31634C17.1451 7.36326 17.1078 7.42546 17.0915 7.49439C17.0752 7.56333 17.0807 7.63562 17.1071 7.70134L17.1131 7.71534C17.1375 7.77699 17.1797 7.82994 17.2345 7.86736C17.2892 7.90479 17.3538 7.92498 17.4201 7.92534C17.7186 7.92203 18.0147 7.97793 18.2914 8.0898C18.5682 8.20167 18.8199 8.36729 19.0322 8.57708C19.2446 8.78687 19.4132 9.03667 19.5283 9.31204C19.6435 9.5874 19.7029 9.88286 19.7031 10.1813V11.1813C19.7026 11.7779 19.4654 12.3499 19.0435 12.7717C18.6217 13.1936 18.0497 13.4308 17.4531 13.4313C17.3827 13.4278 17.313 13.446 17.2534 13.4836C17.1938 13.5212 17.1472 13.5763 17.1201 13.6413C17.0935 13.7046 17.0854 13.7742 17.0965 13.8419C17.1076 13.9097 17.1377 13.9729 17.1831 14.0243C17.3959 14.2325 17.5652 14.4807 17.6814 14.7548C17.7975 15.0288 17.8581 15.3232 17.8597 15.6208C17.8613 15.9184 17.8038 16.2134 17.6906 16.4886C17.5774 16.7639 17.4107 17.014 17.2001 17.2243L16.5001 17.9303C16.072 18.3405 15.502 18.5694 14.9091 18.5694C14.3162 18.5694 13.7463 18.3405 13.3181 17.9303C13.2711 17.8774 13.2089 17.8402 13.14 17.824C13.0711 17.8077 12.9989 17.813 12.9331 17.8393C12.8695 17.8642 12.8145 17.9071 12.7747 17.9626C12.735 18.0182 12.7122 18.0841 12.7091 18.1523C12.7119 18.4505 12.6556 18.7462 12.5435 19.0224C12.4314 19.2987 12.2657 19.55 12.0559 19.7619C11.8462 19.9737 11.5966 20.142 11.3215 20.2569C11.0464 20.3718 10.7513 20.4311 10.4531 20.4313ZM7.64412 16.4993C7.95688 16.6494 8.22163 16.8837 8.40868 17.1758C8.59574 17.468 8.6977 17.8065 8.70312 18.1533C8.70033 18.2539 8.71761 18.354 8.75396 18.4479C8.79032 18.5417 8.84501 18.6273 8.91484 18.6997C8.98467 18.7722 9.06824 18.83 9.16066 18.8697C9.25309 18.9095 9.35251 18.9304 9.45312 18.9313H10.4531C10.652 18.9313 10.8428 18.8523 10.9835 18.7117C11.1241 18.571 11.2031 18.3802 11.2031 18.1813C11.2026 17.8118 11.3116 17.4504 11.5162 17.1427C11.7209 16.835 12.0121 16.5947 12.3531 16.4523C12.6875 16.3137 13.0556 16.2777 13.4105 16.349C13.7654 16.4202 14.0911 16.5954 14.3461 16.8523C14.4151 16.926 14.4981 16.9851 14.5902 17.0261C14.6824 17.0672 14.7818 17.0893 14.8827 17.0913C14.9836 17.0932 15.0838 17.0749 15.1775 17.0375C15.2712 17.0001 15.3564 16.9443 15.4281 16.8733L16.1341 16.1733C16.275 16.0323 16.3541 15.8412 16.3541 15.6418C16.3541 15.4425 16.275 15.2513 16.1341 15.1103C15.8773 14.8518 15.7014 14.5239 15.6281 14.1669C15.5547 13.8099 15.5871 13.4392 15.7211 13.1003V13.0863L15.7281 13.0693C15.8656 12.7341 16.0999 12.4476 16.4012 12.2463C16.7024 12.045 17.0568 11.9381 17.4191 11.9393C17.5196 11.942 17.6195 11.9246 17.7132 11.8882C17.8068 11.8518 17.8923 11.797 17.9645 11.7272C18.0368 11.6574 18.0944 11.5738 18.134 11.4815C18.1736 11.3891 18.1944 11.2898 18.1951 11.1893V10.1893C18.1951 9.99042 18.1161 9.79966 17.9755 9.65901C17.8348 9.51835 17.644 9.43934 17.4451 9.43934C17.0786 9.44388 16.719 9.33871 16.4127 9.13735C16.1064 8.93599 15.8673 8.64763 15.7261 8.30934C15.5809 7.9707 15.5408 7.59618 15.6113 7.2345C15.6817 6.87282 15.8594 6.5407 16.1211 6.28134C16.1965 6.21039 16.2567 6.12489 16.2982 6.03002C16.3396 5.93514 16.3613 5.83286 16.3621 5.72934C16.3624 5.63082 16.3431 5.53323 16.3054 5.44224C16.2676 5.35125 16.2121 5.26868 16.1421 5.19934L15.4421 4.49334C15.3723 4.42373 15.2895 4.36857 15.1984 4.33099C15.1073 4.29341 15.0097 4.27416 14.9111 4.27434C14.8123 4.27387 14.7145 4.29318 14.6233 4.33114C14.5321 4.36909 14.4494 4.42492 14.3801 4.49534C14.1213 4.75173 13.7934 4.9273 13.4365 5.00063C13.0796 5.07396 12.7091 5.04189 12.3701 4.90834L12.3531 4.90534L12.3361 4.89834C12.0009 4.76086 11.7143 4.52652 11.5131 4.22529C11.3118 3.92406 11.2049 3.56963 11.2061 3.20734C11.2088 3.10689 11.1914 3.00692 11.155 2.91327C11.1185 2.81962 11.0638 2.73418 10.994 2.66193C10.9242 2.58967 10.8406 2.53207 10.7483 2.49248C10.6559 2.45288 10.5566 2.4321 10.4561 2.43134H9.45613C9.25721 2.43134 9.06645 2.51035 8.92579 2.65101C8.78514 2.79166 8.70613 2.98242 8.70613 3.18134C8.71046 3.55045 8.60356 3.91231 8.39933 4.21981C8.19511 4.5273 7.90303 4.76618 7.56112 4.90534C7.22472 5.04329 6.85528 5.07969 6.49842 5.01002C6.14157 4.94036 5.81294 4.76769 5.55312 4.51334C5.48407 4.44023 5.40114 4.38161 5.30918 4.34092C5.21722 4.30022 5.11807 4.27825 5.01753 4.27629C4.91699 4.27434 4.81706 4.29243 4.72359 4.32953C4.63011 4.36662 4.54497 4.42197 4.47312 4.49234L3.76412 5.20134C3.69443 5.27099 3.63914 5.35369 3.60142 5.44471C3.5637 5.53574 3.54429 5.6333 3.54429 5.73184C3.54429 5.83037 3.5637 5.92793 3.60142 6.01896C3.63914 6.10998 3.69443 6.19269 3.76412 6.26234C4.02768 6.5185 4.20838 6.8478 4.28289 7.2077C4.3574 7.56761 4.3223 7.94158 4.18213 8.28134C4.16845 8.31557 4.15276 8.34896 4.13513 8.38134C3.98377 8.69241 3.74897 8.95531 3.45691 9.14071C3.16486 9.32612 2.82703 9.42673 2.48112 9.43134C2.38055 9.42854 2.28042 9.44582 2.1866 9.48217C2.09278 9.51853 2.00715 9.57322 1.93471 9.64305C1.86227 9.71288 1.80448 9.79645 1.76472 9.88887C1.72496 9.9813 1.70402 10.0807 1.70312 10.1813V11.1813C1.70312 11.3802 1.78214 11.571 1.92279 11.7117C2.06345 11.8523 2.25421 11.9313 2.45312 11.9313C2.8201 11.9266 3.18004 12.0322 3.48634 12.2344C3.79264 12.4366 4.0312 12.726 4.17112 13.0653L4.17712 13.0783L4.18213 13.0923C4.31622 13.4286 4.3498 13.7966 4.2788 14.1517C4.20779 14.5067 4.03525 14.8335 3.78212 15.0923C3.70836 15.1623 3.64958 15.2465 3.60936 15.3398C3.56913 15.4331 3.5483 15.5337 3.54812 15.6353C3.54737 15.7341 3.56636 15.8321 3.60397 15.9234C3.64157 16.0148 3.69704 16.0977 3.76713 16.1673L4.47312 16.8673C4.61601 17.0038 4.80602 17.08 5.00362 17.08C5.20123 17.08 5.39124 17.0038 5.53412 16.8673C5.79071 16.6044 6.12016 16.4244 6.48002 16.3504C6.83987 16.2764 7.21364 16.3119 7.55313 16.4523C7.5843 16.4663 7.61468 16.482 7.64412 16.4993Z" fill="#565656"/>
</svg>
