<svg width="24" height="26" viewBox="0 0 24 26" fill="none" xmlns="http://www.w3.org/2000/svg">
<path d="M14.85 0.5C15.3747 0.500136 15.8861 0.665357 16.3116 0.97226C16.7372 1.27916 17.0554 1.71219 17.2213 2.21L17.9 4.25H22C22.3315 4.25 22.6495 4.3817 22.8839 4.61612C23.1183 4.85054 23.25 5.16848 23.25 5.5C23.25 5.83152 23.1183 6.14946 22.8839 6.38388C22.6495 6.6183 22.3315 6.75 22 6.75L21.9963 6.83875L20.9125 22.0175C20.8449 22.9633 20.4215 23.8483 19.7275 24.4944C19.0336 25.1406 18.1207 25.4999 17.1725 25.5H6.8275C5.87932 25.4999 4.96638 25.1406 4.27246 24.4944C3.57853 23.8483 3.15514 22.9633 3.0875 22.0175L2.00375 6.8375C2.00149 6.80839 2.00024 6.7792 2 6.75C1.66848 6.75 1.35054 6.6183 1.11612 6.38388C0.881696 6.14946 0.75 5.83152 0.75 5.5C0.75 5.16848 0.881696 4.85054 1.11612 4.61612C1.35054 4.3817 1.66848 4.25 2 4.25H6.1L6.77875 2.21C6.94462 1.71199 7.26304 1.27881 7.68887 0.971894C8.1147 0.664973 8.62634 0.499874 9.15125 0.5H14.85ZM19.4963 6.75H4.50375L5.58125 21.8387C5.60369 22.154 5.74472 22.4491 5.97595 22.6645C6.20718 22.88 6.51145 22.9998 6.8275 23H17.1725C17.4886 22.9998 17.7928 22.88 18.0241 22.6645C18.2553 22.4491 18.3963 22.154 18.4188 21.8387L19.4963 6.75ZM9.5 10.5C9.80617 10.5 10.1017 10.6124 10.3305 10.8159C10.5593 11.0193 10.7054 11.2997 10.7413 11.6038L10.75 11.75V18C10.7496 18.3186 10.6277 18.625 10.4089 18.8567C10.1902 19.0884 9.89131 19.2278 9.57326 19.2465C9.2552 19.2651 8.94203 19.1617 8.69771 18.9572C8.45339 18.7527 8.29638 18.4626 8.25875 18.1463L8.25 18V11.75C8.25 11.4185 8.3817 11.1005 8.61612 10.8661C8.85054 10.6317 9.16848 10.5 9.5 10.5ZM14.5 10.5C14.8315 10.5 15.1495 10.6317 15.3839 10.8661C15.6183 11.1005 15.75 11.4185 15.75 11.75V18C15.75 18.3315 15.6183 18.6495 15.3839 18.8839C15.1495 19.1183 14.8315 19.25 14.5 19.25C14.1685 19.25 13.8505 19.1183 13.6161 18.8839C13.3817 18.6495 13.25 18.3315 13.25 18V11.75C13.25 11.4185 13.3817 11.1005 13.6161 10.8661C13.8505 10.6317 14.1685 10.5 14.5 10.5ZM14.85 3H9.15L8.73375 4.25H15.2662L14.85 3Z" fill="#FF0000"/>
</svg>
